<svg width="259" height="38" viewBox="0 0 259 38" fill="none" xmlns="http://www.w3.org/2000/svg">
<g clip-path="url(#clip0_2096_1082)">
<path d="M30.923 22.2553C30.923 18.9992 23.4691 19.2004 23.4691 14.8047C23.4691 12.6595 25.5154 11.089 28.3131 11.089C31.1108 11.089 33.2462 12.8223 33.2462 15.3027H30.1915C30.1915 14.412 29.3907 13.8279 28.1747 13.8279C27.2059 13.8279 26.5337 14.2397 26.5337 14.8047C26.5337 16.6051 33.9876 17.0552 33.9876 22.2553H30.9329H30.923ZM25.2386 22.3798C24.2896 22.3798 23.5284 21.6424 23.5284 20.723C23.5284 19.8037 24.2896 19.0663 25.2386 19.0663C26.1877 19.0663 26.9489 19.8037 26.9489 20.723C26.9489 21.6424 26.1877 22.3798 25.2386 22.3798ZM17.4585 22.2553L15.155 16.2699L12.8516 22.2553H10.2418L6.45548 11.3188H9.69804L11.6752 17.467L14.0281 11.3188H16.282L18.6349 17.467L20.612 11.3188H23.8546L20.0683 22.2553H17.4585ZM5.78324 22.2553H2.7285V11.3188H5.78324V22.2553ZM28.3823 8.86719H0V24.2281H35.6583V15.9156C35.6583 12.0179 32.4059 8.86719 28.3823 8.86719Z" fill="white"/>
<path d="M49.1032 15.773H55.4104L53.9275 11.3294C52.8697 8.06382 52.3457 4.98973 52.3457 4.98973H52.2765C52.2765 4.98973 51.4165 8.99275 50.6256 11.3294L49.1032 15.773ZM49.469 0.412109H55.3115L64.1989 24.2196H58.2575L56.7054 19.6803H47.7884L46.2659 24.2196H40.6211L49.469 0.412109Z" fill="white"/>
<path d="M71.3365 9.79675H71.4353C72.5228 7.74735 74.411 6.72266 76.8528 6.72266C80.7182 6.72266 82.9623 9.22215 82.9623 13.0241V24.2287H77.8117V13.9913C77.8117 12.1334 76.7836 10.8885 74.8756 10.8885C72.8589 10.8885 71.5045 12.459 71.5045 14.6329V24.2287H66.3145V7.20149H71.3365V9.79675Z" fill="white"/>
<path d="M85.4436 15.7438C85.4436 10.6203 89.0421 6.72266 94.5584 6.72266C99.2443 6.72266 102.151 9.31792 102.783 13.0241H97.7614C97.3956 11.4535 96.3378 10.4671 94.6276 10.4671C92.0177 10.4671 90.693 12.5452 90.693 15.7438C90.693 18.9424 92.0177 20.9631 94.6276 20.9631C96.5454 20.9631 97.7021 19.8426 97.9295 17.889H102.922C102.754 21.7579 99.5804 24.765 94.6968 24.765C89.0816 24.765 85.4436 20.829 85.4436 15.7438Z" fill="white"/>
<path d="M117.81 15.7438C117.81 12.5069 116.357 10.3043 113.776 10.3043C111.196 10.3043 109.743 12.5165 109.743 15.7438C109.743 18.9711 111.127 21.1163 113.776 21.1163C116.426 21.1163 117.81 18.9424 117.81 15.7438ZM104.504 15.7438C104.504 10.6203 108.201 6.72266 113.816 6.72266C119.431 6.72266 123.069 10.6299 123.069 15.7438C123.069 20.8577 119.402 24.765 113.816 24.765C108.231 24.765 104.504 20.829 104.504 15.7438Z" fill="white"/>
<path d="M132.748 16.7014H138.432C138.729 19.2967 140.478 20.4459 143.652 20.4459C145.836 20.4459 147.883 19.6127 147.883 17.6591C147.883 15.581 145.797 15.1309 142.238 14.3264C137.443 13.273 133.548 12.1238 133.548 7.16312C133.548 2.20243 137.71 -0.00976562 143.128 -0.00976562C148.545 -0.00976562 152.381 2.42269 152.737 7.09608H147.22C146.924 5.23822 145.401 4.15606 142.96 4.15606C140.646 4.15606 139.094 5.11372 139.094 6.61725C139.094 8.47511 141.21 8.88691 145.075 9.72007C149.504 10.6777 153.567 12.0855 153.567 17.1132C153.567 22.1409 149.277 24.7937 143.662 24.7937C137.087 24.7937 132.925 21.8536 132.757 16.7014" fill="white"/>
<path d="M155.08 7.20123H157.719V1.76172H162.81V7.20123H166.251V10.3998H162.81V18.8464C162.81 20.1297 163.542 20.4744 164.758 20.4744C165.084 20.4744 165.618 20.4457 165.944 20.4074H166.211V24.1518C165.648 24.2476 164.59 24.4104 163.206 24.4104C159.934 24.4104 157.719 23.3857 157.719 19.9286V10.3902H155.08V7.19166V7.20123Z" fill="white"/>
<path d="M181.435 15.7438C181.435 12.5069 179.982 10.3043 177.402 10.3043C174.822 10.3043 173.369 12.5165 173.369 15.7438C173.369 18.9711 174.753 21.1163 177.402 21.1163C180.051 21.1163 181.435 18.9424 181.435 15.7438ZM168.129 15.7438C168.129 10.6203 171.826 6.72266 177.442 6.72266C183.057 6.72266 186.695 10.6299 186.695 15.7438C186.695 20.8577 183.027 24.765 177.442 24.765C171.856 24.765 168.129 20.829 168.129 15.7438Z" fill="white"/>
<path d="M194.287 10.2371H194.386C195.513 7.87172 197.095 6.91406 199.279 6.91406C199.774 6.91406 200.139 6.94279 200.367 7.03856V11.4246H200.238C199.873 11.3576 199.517 11.3289 199.151 11.3289C196.343 11.3002 194.495 12.9952 194.495 16.3183V24.219H189.305V7.20136H194.297V10.2371H194.287Z" fill="white"/>
<path d="M213.248 18.1092V15.8971C212.487 16.3472 211.37 16.6057 210.203 16.8547C207.93 17.3335 206.832 17.8794 206.832 19.3542C206.832 20.829 207.989 21.3749 209.412 21.3749C211.726 21.3749 213.248 19.9671 213.248 18.1092ZM213.189 22.141H213.12C211.963 23.7116 210.51 24.6692 207.801 24.6692C204.331 24.6692 201.79 22.8784 201.79 19.517C201.79 15.7438 204.865 14.7766 208.691 14.3361C211.825 13.9243 213.12 13.4359 213.12 12.1622C213.12 10.8885 212.299 10.1128 210.51 10.1128C208.523 10.1128 207.574 11.0034 207.435 12.3537H202.641C202.769 9.44241 205.221 6.72266 210.441 6.72266C212.685 6.72266 214.276 7.03868 215.492 7.74735C217.311 8.77205 218.171 10.5341 218.171 12.8325V21.5664C218.171 22.9071 218.369 23.6445 218.834 23.9318V24.2191H213.782C213.515 23.8361 213.288 23.0987 213.189 22.141Z" fill="white"/>
<path d="M233.603 14.949C233.603 12.4207 232.318 10.5341 229.767 10.5341C227.484 10.5341 226.07 12.2579 226.07 14.9777C226.07 17.6975 227.494 19.3925 229.807 19.3925C232.447 19.3925 233.603 17.4676 233.603 14.949ZM221.374 24.832H226.426C226.752 25.8567 227.751 26.5654 229.767 26.5654C232.209 26.5654 233.435 25.3492 233.435 23.271V22.9167C233.435 22.0548 233.465 21.2504 233.534 20.6758H233.405C232.377 22.3421 230.825 23.1753 228.65 23.1753C224.587 23.1753 220.989 20.264 220.989 15.1118C220.989 9.95955 224.063 6.72266 228.383 6.72266C230.766 6.72266 232.447 7.48879 233.435 9.37538H233.504V7.20149H238.457V22.7252C238.457 25.2534 237.597 27.073 236.173 28.2892C234.651 29.5725 232.407 30.147 229.827 30.147C225.002 30.147 221.898 28.1934 221.374 24.832Z" fill="white"/>
<path d="M246.218 14.0775H253.721C253.553 11.7121 252.169 10.266 250.122 10.266C247.75 10.266 246.554 11.7408 246.227 14.0775M241.097 15.7438C241.097 10.6203 244.764 6.72266 250.113 6.72266C252.624 6.72266 254.611 7.51752 256.163 8.89655C258.15 10.7544 259.04 13.6274 259 16.9888H246.188C246.514 19.5457 247.938 21.0876 250.449 21.0876C252.07 21.0876 253.088 20.4747 253.652 19.4212H258.674C257.784 22.4283 254.907 24.7363 250.38 24.7363C244.626 24.7363 241.097 20.829 241.097 15.7438Z" fill="white"/>
<path d="M40.8781 29.2461H46.8491V30.6155H44.6841V36.2657H43.0233V30.6155H40.8781V29.2461Z" fill="white"/>
<path d="M48.9845 31.9659H49.0141C49.3305 31.4296 49.8544 31.104 50.5662 31.104C51.7031 31.104 52.3654 31.8414 52.3654 32.9618V36.2562H50.843V33.2395C50.843 32.6937 50.5464 32.3298 49.973 32.3298C49.3799 32.3298 48.9845 32.7894 48.9845 33.4311V36.2562H47.462V29.2461H48.9845V31.1806C48.9845 31.1806 48.9845 31.6307 48.9845 31.9659Z" fill="white"/>
<path d="M54.4613 33.2776H56.6658C56.6164 32.5785 56.2111 32.1571 55.608 32.1571C54.9061 32.1571 54.5601 32.5881 54.4613 33.2776ZM52.9586 33.766C52.9586 32.2625 54.0362 31.1133 55.6179 31.1133C56.3594 31.1133 56.9426 31.3527 57.3974 31.7549C57.9806 32.3008 58.2476 33.1531 58.2377 34.1395H54.4613C54.5601 34.896 54.9753 35.3461 55.7168 35.3461C56.1913 35.3461 56.4978 35.1642 56.6559 34.8577H58.1388C57.8719 35.7388 57.0316 36.4187 55.697 36.4187C54.0065 36.4187 52.9685 35.2695 52.9685 33.766" fill="white"/>
<path d="M60.7882 34.0456H62.4589C62.5479 34.8117 63.062 35.1469 64.0011 35.1469C64.6437 35.1469 65.2467 34.9075 65.2467 34.3233C65.2467 33.7104 64.6338 33.5764 63.5859 33.3465C62.1722 33.0401 61.0255 32.6953 61.0255 31.2397C61.0255 29.784 62.2513 29.1328 63.8429 29.1328C65.4346 29.1328 66.5714 29.8511 66.6703 31.2205H65.049C64.96 30.6746 64.5152 30.3586 63.7935 30.3586C63.1114 30.3586 62.6566 30.6459 62.6566 31.0864C62.6566 31.6323 63.2795 31.7568 64.4163 31.9962C65.7213 32.2835 66.9175 32.6953 66.9175 34.1701C66.9175 35.6449 65.6521 36.4302 64.0011 36.4302C62.0635 36.4302 60.8376 35.5683 60.7882 34.0456Z" fill="white"/>
<path d="M67.2141 31.2477H67.9951V29.6484H69.4879V31.2477H70.4962V32.1862H69.4879V34.6762C69.4879 35.0496 69.7053 35.155 70.0612 35.155C70.1601 35.155 70.3183 35.155 70.4072 35.1358H70.4863V36.2371C70.3183 36.2659 70.0118 36.3138 69.5966 36.3138C68.6377 36.3138 67.9852 36.0073 67.9852 34.9922V32.1862H67.2042V31.2477H67.2141Z" fill="white"/>
<path d="M74.8262 33.766C74.8262 32.8179 74.4011 32.1667 73.6399 32.1667C72.8787 32.1667 72.4536 32.8179 72.4536 33.766C72.4536 34.7141 72.8589 35.3461 73.6399 35.3461C74.4209 35.3461 74.8262 34.7045 74.8262 33.766ZM70.9114 33.766C70.9114 32.2625 71.9988 31.1133 73.6498 31.1133C75.3007 31.1133 76.3783 32.2625 76.3783 33.766C76.3783 35.2695 75.3007 36.4283 73.6498 36.4283C71.9988 36.4283 70.9114 35.2695 70.9114 33.766Z" fill="white"/>
<path d="M78.4642 32.1487H78.4939C78.8201 31.4496 79.2946 31.1719 79.9372 31.1719C80.0855 31.1719 80.1942 31.1719 80.2536 31.2102V32.503H80.214C80.1053 32.4839 79.9965 32.4743 79.8977 32.4743C79.0672 32.4743 78.5235 32.9627 78.5235 33.9491V36.2762H77.0011V31.2581H78.4741V32.1487H78.4642Z" fill="white"/>
<path d="M83.9014 34.4653V33.8141C83.674 33.9481 83.3477 34.0248 83.0017 34.0918C82.3295 34.2354 82.0132 34.3982 82.0132 34.8292C82.0132 35.2601 82.3493 35.4229 82.7744 35.4229C83.4565 35.4229 83.9014 35.0112 83.9014 34.4653ZM83.8816 35.6528H83.8618C83.5257 36.1125 83.0907 36.3998 82.2998 36.3998C81.2816 36.3998 80.5303 35.873 80.5303 34.8867C80.5303 33.7758 81.4299 33.4885 82.5668 33.364C83.4861 33.2395 83.8717 33.0958 83.8717 32.7223C83.8717 32.3489 83.6246 32.119 83.1006 32.119C82.5173 32.119 82.2306 32.3872 82.201 32.7798H80.7873C80.8269 31.9275 81.5485 31.123 83.0808 31.123C83.7432 31.123 84.2078 31.2188 84.5736 31.4295C85.1074 31.7359 85.3645 32.2531 85.3645 32.933V35.5091C85.3645 35.9018 85.4238 36.122 85.5622 36.2082V36.2944H84.0694C83.9903 36.1795 83.9211 35.9592 83.8915 35.6815" fill="white"/>
<path d="M89.7538 33.5284C89.7538 32.7814 89.3782 32.2259 88.6268 32.2259C87.9546 32.2259 87.5394 32.7335 87.5394 33.5379C87.5394 34.3424 87.9546 34.8403 88.6367 34.8403C89.4177 34.8403 89.7538 34.2753 89.7538 33.5284ZM86.1554 36.4396H87.6383C87.7371 36.7365 88.0238 36.9472 88.617 36.9472C89.3386 36.9472 89.6945 36.5929 89.6945 35.98V35.8746C89.6945 35.6161 89.7044 35.3862 89.7242 35.2138H89.6846C89.3782 35.7022 88.9234 35.9512 88.2808 35.9512C87.0847 35.9512 86.0269 35.0989 86.0269 33.5762C86.0269 32.0536 86.9364 31.1055 88.2018 31.1055C88.9036 31.1055 89.3979 31.3353 89.6846 31.8908H89.7044V31.2491H91.1675V35.8172C91.1675 36.5641 90.9105 37.1004 90.4953 37.4548C90.0504 37.8283 89.3881 38.0006 88.6268 38.0006C87.2033 38.0006 86.2938 37.426 86.1356 36.4396" fill="white"/>
<path d="M93.3226 33.2776H95.5271C95.4777 32.5785 95.0724 32.1571 94.4694 32.1571C93.7675 32.1571 93.4215 32.5881 93.3226 33.2776ZM91.8101 33.766C91.8101 32.2625 92.8876 31.1133 94.4694 31.1133C95.2108 31.1133 95.7941 31.3527 96.2488 31.7549C96.8321 32.3008 97.099 33.1531 97.0891 34.1395H93.3127C93.4116 34.896 93.8268 35.3461 94.5682 35.3461C95.0427 35.3461 95.3492 35.1642 95.5074 34.8577H96.9903C96.7233 35.7388 95.883 36.4187 94.5484 36.4187C92.858 36.4187 91.8199 35.2695 91.8199 33.766" fill="white"/>
<path d="M100.015 29.2461H105.443V30.5868H101.666V31.985H104.939V33.2587H101.666V34.8867H105.512V36.2657H100.015V29.2461Z" fill="white"/>
<path d="M109.822 33.8043C109.822 32.952 109.437 32.2912 108.656 32.2912C107.875 32.2912 107.548 32.9137 107.548 33.8043C107.548 34.6949 107.944 35.2791 108.626 35.2791C109.417 35.2791 109.822 34.6662 109.822 33.8043ZM109.773 36.7348C109.773 36.2559 109.793 35.8537 109.812 35.643H109.793C109.476 36.1314 108.952 36.4283 108.27 36.4283C106.876 36.4283 105.996 35.394 105.996 33.766C105.996 32.2337 106.876 31.1133 108.24 31.1133C108.952 31.1133 109.447 31.391 109.802 31.9656H109.832V31.2569H111.295V37.9414H109.783V36.7443L109.773 36.7348Z" fill="white"/>
<path d="M115.516 36.2564V35.5382H115.487C115.111 36.1224 114.637 36.3905 113.935 36.3905C112.758 36.3905 112.116 35.6531 112.116 34.5518V31.2383H113.638V34.2741C113.638 34.8295 113.925 35.1551 114.469 35.1551C115.081 35.1551 115.457 34.705 115.457 34.0825V31.2479H116.96V36.2564H115.507H115.516Z" fill="white"/>
<path d="M117.83 31.2476H119.362V36.2562H117.83V31.2476ZM117.82 29.2461H119.372V30.5389H117.82V29.2461Z" fill="white"/>
<path d="M123.979 33.8043C123.979 32.9137 123.623 32.2912 122.872 32.2912C122.081 32.2912 121.705 32.9616 121.705 33.8043C121.705 34.647 122.11 35.2791 122.891 35.2791C123.583 35.2791 123.979 34.7045 123.979 33.8043ZM120.222 31.2474H121.695V31.9656H121.725C122.071 31.391 122.595 31.1133 123.297 31.1133C124.671 31.1133 125.521 32.2242 125.521 33.7564C125.521 35.3844 124.621 36.4283 123.247 36.4283C122.565 36.4283 122.021 36.141 121.715 35.643H121.695C121.715 35.8346 121.745 36.1985 121.745 36.7348V37.9318H120.222V31.2474Z" fill="white"/>
<path d="M126.154 31.2474H127.627V32.0326H127.656C127.983 31.4389 128.487 31.1133 129.208 31.1133C129.891 31.1133 130.365 31.4389 130.632 32.0614H130.652C131.077 31.391 131.64 31.1133 132.293 31.1133C133.44 31.1133 134.033 31.8507 134.033 32.9616V36.2655H132.52V33.201C132.52 32.6551 132.243 32.3199 131.749 32.3199C131.205 32.3199 130.859 32.7605 130.859 33.4021V36.2559H129.327V33.1914C129.327 32.6455 129.07 32.3104 128.566 32.3104C128.032 32.3104 127.676 32.7509 127.676 33.3925V36.2463H126.154V31.2282V31.2474Z" fill="white"/>
<path d="M136.119 33.2776H138.323C138.274 32.5785 137.868 32.1571 137.265 32.1571C136.563 32.1571 136.217 32.5881 136.119 33.2776ZM134.616 33.766C134.616 32.2625 135.694 31.1133 137.275 31.1133C138.017 31.1133 138.6 31.3527 139.055 31.7549C139.638 32.3008 139.905 33.1531 139.895 34.1395H136.119C136.217 34.896 136.633 35.3461 137.374 35.3461C137.849 35.3461 138.155 35.1642 138.313 34.8577H139.786C139.529 35.7388 138.679 36.4187 137.344 36.4187C135.654 36.4187 134.616 35.2695 134.616 33.766Z" fill="white"/>
<path d="M141.981 32.0135H142.011C142.327 31.4102 142.881 31.1133 143.602 31.1133C144.739 31.1133 145.401 31.8507 145.401 32.9711V36.2655H143.879V33.2489C143.879 32.703 143.573 32.3391 143.009 32.3391C142.416 32.3391 142.02 32.7988 142.02 33.4404V36.2655H140.498V31.2474H141.981V32.0135Z" fill="white"/>
<path d="M145.836 31.2477H146.617V29.6484H148.11V31.2477H149.119V32.1862H148.11V34.6762C148.11 35.0496 148.328 35.155 148.684 35.155C148.782 35.155 148.941 35.155 149.03 35.1358H149.109V36.2371C148.941 36.2659 148.634 36.3138 148.219 36.3138C147.26 36.3138 146.608 36.0073 146.608 34.9922V32.1862H145.827V31.2477H145.836Z" fill="white"/>
<path d="M152.084 29.2461H157.512V30.5868H153.735V31.985H156.998V33.2587H153.735V34.8867H157.571V36.2657H152.084V29.2461Z" fill="white"/>
<path d="M159.825 33.6326L158.184 31.248H159.924L160.22 31.7173C160.477 32.1291 160.764 32.7803 160.764 32.7803H160.784C160.784 32.7803 161.071 32.1291 161.308 31.7173L161.595 31.248H163.206L161.624 33.6039L163.443 36.2566H161.674L161.278 35.615C161.031 35.1936 160.715 34.5041 160.715 34.5041H160.695C160.695 34.5041 160.369 35.1936 160.092 35.615L159.677 36.2566H158.016L159.835 33.623L159.825 33.6326Z" fill="white"/>
<path d="M167.724 33.8043C167.724 32.9137 167.368 32.2912 166.617 32.2912C165.826 32.2912 165.45 32.9616 165.45 33.8043C165.45 34.647 165.855 35.2791 166.636 35.2791C167.328 35.2791 167.724 34.7045 167.724 33.8043ZM163.967 31.2474H165.44V31.9656H165.47C165.826 31.391 166.34 31.1133 167.042 31.1133C168.416 31.1133 169.266 32.2242 169.266 33.7564C169.266 35.3844 168.366 36.4283 166.992 36.4283C166.31 36.4283 165.766 36.141 165.46 35.643H165.44C165.46 35.8346 165.49 36.1985 165.49 36.7348V37.9318H163.967V31.2474Z" fill="white"/>
<path d="M171.154 33.2776H173.359C173.309 32.5785 172.904 32.1571 172.301 32.1571C171.599 32.1571 171.253 32.5881 171.154 33.2776ZM169.651 33.766C169.651 32.2625 170.729 31.1133 172.311 31.1133C173.052 31.1133 173.636 31.3527 174.09 31.7549C174.674 32.3008 174.94 33.1531 174.931 34.1395H171.154C171.253 34.896 171.668 35.3461 172.41 35.3461C172.884 35.3461 173.191 35.1642 173.349 34.8577H174.822C174.565 35.7388 173.715 36.4187 172.38 36.4187C170.69 36.4187 169.651 35.2695 169.651 33.766Z" fill="white"/>
<path d="M177.007 32.1487H177.036C177.362 31.4496 177.837 31.1719 178.48 31.1719C178.628 31.1719 178.737 31.1719 178.796 31.2102V32.503H178.756C178.648 32.4839 178.539 32.4743 178.43 32.4743C177.6 32.4743 177.056 32.9627 177.056 33.9491V36.2762H175.524V31.2581H176.997V32.1487H177.007Z" fill="white"/>
<path d="M179.181 31.2477H179.962V29.6484H181.455V31.2477H182.464V32.1862H181.455V34.6762C181.455 35.0496 181.673 35.155 182.029 35.155C182.127 35.155 182.286 35.155 182.375 35.1358H182.454V36.2371C182.286 36.2659 181.979 36.3138 181.574 36.3138C180.605 36.3138 179.962 36.0073 179.962 34.9922V32.1862H179.181V31.2477Z" fill="white"/>
<path d="M182.889 34.7141H184.332C184.421 35.1833 184.787 35.4515 185.38 35.4515C185.924 35.4515 186.24 35.2312 186.24 34.8769C186.24 34.4268 185.627 34.3693 184.905 34.2353C183.986 34.0629 183.047 33.8426 183.047 32.6743C183.047 31.6496 184.006 31.1133 185.222 31.1133C186.665 31.1133 187.377 31.7166 187.515 32.5881H186.092C185.993 32.2337 185.706 32.0518 185.212 32.0518C184.718 32.0518 184.441 32.2433 184.441 32.5593C184.441 32.9328 185.004 32.9903 185.716 33.1148C186.635 33.2776 187.693 33.5074 187.693 34.7715C187.693 35.8537 186.705 36.4187 185.36 36.4187C183.867 36.4187 182.958 35.7196 182.879 34.7141" fill="white"/>
</g>
<defs>
<clipPath id="clip0_2096_1082">
<rect width="259" height="38" fill="white"/>
</clipPath>
</defs>
</svg>
